# xmcd
#
# Track frame offsets:
#	150
#	44934
#	60838
#	74263
#	106005
#	133656
#
# Disc length: 1976 seconds
#
# Revision: 0
# Processed by: cddbd v1.5.2PL0 Copyright (c) Steve Scherf et al.
# Submitted via: audiograbber 1.83.01
#
DISCID=5007b606
DTITLE=Ike and Tina Turner - ike and tina turner "LIVE" IN PARIS CD 2
DYEAR=1971
DGENRE=
TTITLE0=I Smell trouble
TTITLE1=Respect
TTITLE2=Honky Tonk Women
TTITLE3=I've Been Loving You Too Long
TTITLE4=I Want To Take You Higher
TTITLE5=Land Of 1000 Dances
EXTD=Erschienen bei Liberty LBS 83 469 X
EXTT0=
EXTT1=
EXTT2=
EXTT3=
EXTT4=
EXTT5=
PLAYORDER=
